<svg xmlns="http://www.w3.org/2000/svg" xmlns:xlink="http://www.w3.org/1999/xlink" width="600" zoomAndPan="magnify" viewBox="0 0 450 449.999984" height="600" preserveAspectRatio="xMidYMid meet" version="1.0"><defs><clipPath id="e0fcffefdf"><path d="M 120 157.5 L 123.75 157.5 L 123.75 292.5 L 120 292.5 Z M 120 157.5 " clip-rule="nonzero"/></clipPath><clipPath id="434cf48a0f"><path d="M 0 0.5 L 3.75 0.5 L 3.75 135.5 L 0 135.5 Z M 0 0.5 " clip-rule="nonzero"/></clipPath><clipPath id="c9478031d2"><rect x="0" width="4" y="0" height="136"/></clipPath></defs><path fill="#000000" d="M 158.84375 135 L 291.15625 135 C 304.324219 135 315 145.675781 315 158.84375 L 315 291.15625 C 315 304.324219 304.324219 315 291.15625 315 L 158.84375 315 C 145.675781 315 135 304.324219 135 291.15625 L 135 158.84375 C 135 145.675781 145.675781 135 158.84375 135 Z M 158.84375 135 " fill-opacity="1" fill-rule="nonzero"/><path fill="#ffffff" d="M 244.304688 257.800781 L 205.707031 257.800781 C 198.332031 257.800781 192.355469 251.824219 192.355469 244.449219 L 192.355469 205.851562 C 192.355469 198.476562 198.332031 192.5 205.707031 192.5 L 244.304688 192.5 C 251.679688 192.5 257.65625 198.476562 257.65625 205.851562 L 257.65625 244.449219 C 257.65625 251.824219 251.679688 257.800781 244.304688 257.800781 Z M 244.992188 207.917969 C 245.214844 207.917969 245.441406 207.894531 245.664062 207.847656 C 245.882812 207.804688 246.101562 207.734375 246.3125 207.648438 C 246.515625 207.558594 246.714844 207.457031 246.90625 207.332031 C 247.097656 207.207031 247.265625 207.058594 247.429688 206.898438 C 247.589844 206.742188 247.734375 206.566406 247.859375 206.378906 C 247.984375 206.1875 248.089844 205.992188 248.171875 205.78125 C 248.257812 205.570312 248.328125 205.355469 248.371094 205.136719 C 248.417969 204.910156 248.441406 204.6875 248.441406 204.460938 C 248.441406 204.238281 248.414062 204.007812 248.371094 203.785156 C 248.328125 203.5625 248.257812 203.351562 248.171875 203.140625 C 248.089844 202.929688 247.984375 202.734375 247.859375 202.546875 C 247.734375 202.355469 247.589844 202.175781 247.429688 202.019531 C 247.265625 201.859375 247.097656 201.71875 246.90625 201.59375 C 246.71875 201.46875 246.515625 201.359375 246.3125 201.273438 C 246.101562 201.1875 245.882812 201.125 245.664062 201.074219 C 245.21875 200.984375 244.761719 200.984375 244.3125 201.074219 C 244.089844 201.125 243.875 201.1875 243.667969 201.273438 C 243.460938 201.359375 243.261719 201.46875 243.074219 201.59375 C 242.882812 201.71875 242.707031 201.859375 242.546875 202.019531 C 242.386719 202.179688 242.246094 202.355469 242.117188 202.546875 C 241.996094 202.730469 241.886719 202.929688 241.800781 203.140625 C 241.71875 203.347656 241.648438 203.5625 241.605469 203.785156 C 241.558594 204.007812 241.535156 204.238281 241.535156 204.460938 C 241.535156 204.683594 241.5625 204.910156 241.605469 205.136719 C 241.648438 205.355469 241.71875 205.570312 241.800781 205.78125 C 241.886719 205.988281 241.996094 206.1875 242.117188 206.378906 C 242.246094 206.566406 242.386719 206.742188 242.546875 206.898438 C 242.707031 207.058594 242.882812 207.207031 243.074219 207.332031 C 243.261719 207.457031 243.460938 207.5625 243.667969 207.648438 C 243.875 207.734375 244.089844 207.804688 244.3125 207.847656 C 244.535156 207.894531 244.765625 207.917969 244.992188 207.917969 Z M 241.535156 225.148438 C 241.535156 216.023438 234.132812 208.621094 225.003906 208.621094 C 215.878906 208.621094 208.476562 216.023438 208.476562 225.148438 C 208.476562 234.277344 215.878906 241.679688 225.003906 241.679688 C 234.132812 241.679688 241.535156 234.277344 241.535156 225.148438 Z M 241.535156 225.148438 " fill-opacity="1" fill-rule="evenodd"/><path fill="#ffffff" d="M 290.125 225.148438 C 290.125 189.1875 260.96875 160.03125 225.003906 160.03125 C 189.042969 160.03125 159.886719 189.1875 159.886719 225.148438 C 159.886719 261.113281 189.042969 290.269531 225.003906 290.269531 C 260.96875 290.269531 290.125 261.113281 290.125 225.148438 Z M 277.429688 225.148438 C 277.429688 254.105469 253.957031 277.574219 225.003906 277.574219 C 196.050781 277.574219 172.582031 254.105469 172.582031 225.148438 C 172.582031 196.195312 196.050781 172.726562 225.003906 172.726562 C 253.957031 172.726562 277.429688 196.195312 277.429688 225.148438 Z M 277.429688 225.148438 " fill-opacity="1" fill-rule="evenodd"/><g clip-path="url(#e0fcffefdf)"><g transform="matrix(1, 0, 0, 1, 120, 157)"><g clip-path="url(#c9478031d2)"><g clip-path="url(#434cf48a0f)"><path fill="#1c2120" d="M 0 0.5 L 3.75 0.5 L 3.75 135.5 L 0 135.5 Z M 0 0.5 " fill-opacity="1" fill-rule="nonzero"/></g></g></g></g></svg>