<svg xmlns="http://www.w3.org/2000/svg" xmlns:xlink="http://www.w3.org/1999/xlink" width="247" zoomAndPan="magnify" viewBox="0 0 185.25 73.499998" height="98" preserveAspectRatio="xMidYMid meet" version="1.0"><defs><g/><clipPath id="8127ce6800"><path d="M 0.253906 0 L 184.25 0 L 184.25 70 L 0.253906 70 Z M 0.253906 0 " clip-rule="nonzero"/></clipPath><clipPath id="2a6926c4b6"><rect x="0" width="185" y="0" height="70"/></clipPath></defs><g clip-path="url(#8127ce6800)"><g transform="matrix(1, 0, 0, 1, -0.000000000000000056, 0)"><g clip-path="url(#2a6926c4b6)"><g fill="#000000" fill-opacity="1"><g transform="translate(0.524348, 53.895835)"><g><path d="M 20.1875 -41.1875 C 22.695312 -41.1875 24.925781 -40.816406 26.875 -40.078125 C 28.832031 -39.335938 30.679688 -38.234375 32.421875 -36.765625 L 27.890625 -31.375 C 26.691406 -32.300781 25.515625 -32.992188 24.359375 -33.453125 C 23.203125 -33.921875 21.960938 -34.15625 20.640625 -34.15625 C 17.941406 -34.15625 15.804688 -33.015625 14.234375 -30.734375 C 12.671875 -28.453125 11.890625 -24.9375 11.890625 -20.1875 C 11.890625 -15.507812 12.671875 -12.035156 14.234375 -9.765625 C 15.804688 -7.503906 17.984375 -6.375 20.765625 -6.375 C 22.234375 -6.375 23.566406 -6.65625 24.765625 -7.21875 C 25.960938 -7.78125 27.257812 -8.582031 28.65625 -9.625 L 32.890625 -4.171875 C 31.378906 -2.660156 29.550781 -1.421875 27.40625 -0.453125 C 25.257812 0.503906 22.890625 0.984375 20.296875 0.984375 C 16.585938 0.984375 13.359375 0.171875 10.609375 -1.453125 C 7.867188 -3.078125 5.734375 -5.484375 4.203125 -8.671875 C 2.671875 -11.859375 1.90625 -15.695312 1.90625 -20.1875 C 1.90625 -24.550781 2.6875 -28.316406 4.25 -31.484375 C 5.820312 -34.660156 7.988281 -37.070312 10.75 -38.71875 C 13.519531 -40.363281 16.664062 -41.1875 20.1875 -41.1875 Z M 20.1875 -41.1875 "/></g></g></g><g fill="#000000" fill-opacity="1"><g transform="translate(33.872834, 53.895835)"><g><path d="M 28.078125 -8.9375 C 28.078125 -7.769531 28.238281 -6.914062 28.5625 -6.375 C 28.894531 -5.832031 29.425781 -5.425781 30.15625 -5.15625 L 28.25 0.8125 C 26.351562 0.65625 24.804688 0.238281 23.609375 -0.4375 C 22.410156 -1.113281 21.484375 -2.1875 20.828125 -3.65625 C 18.816406 -0.5625 15.722656 0.984375 11.546875 0.984375 C 8.484375 0.984375 6.046875 0.0976562 4.234375 -1.671875 C 2.421875 -3.453125 1.515625 -5.773438 1.515625 -8.640625 C 1.515625 -12.003906 2.75 -14.578125 5.21875 -16.359375 C 7.695312 -18.140625 11.273438 -19.03125 15.953125 -19.03125 L 19.078125 -19.03125 L 19.078125 -20.359375 C 19.078125 -22.171875 18.691406 -23.414062 17.921875 -24.09375 C 17.148438 -24.769531 15.796875 -25.109375 13.859375 -25.109375 C 12.859375 -25.109375 11.640625 -24.960938 10.203125 -24.671875 C 8.773438 -24.390625 7.304688 -23.992188 5.796875 -23.484375 L 3.71875 -29.515625 C 5.644531 -30.253906 7.625 -30.816406 9.65625 -31.203125 C 11.6875 -31.585938 13.570312 -31.78125 15.3125 -31.78125 C 19.71875 -31.78125 22.945312 -30.867188 25 -29.046875 C 27.050781 -27.234375 28.078125 -24.507812 28.078125 -20.875 Z M 14.203125 -5.5625 C 16.296875 -5.5625 17.921875 -6.550781 19.078125 -8.53125 L 19.078125 -13.984375 L 16.8125 -13.984375 C 14.726562 -13.984375 13.171875 -13.613281 12.140625 -12.875 C 11.117188 -12.144531 10.609375 -11.003906 10.609375 -9.453125 C 10.609375 -8.210938 10.925781 -7.253906 11.5625 -6.578125 C 12.207031 -5.898438 13.085938 -5.5625 14.203125 -5.5625 Z M 14.203125 -5.5625 "/></g></g></g><g fill="#000000" fill-opacity="1"><g transform="translate(65.655393, 53.895835)"><g><path d="M 20.296875 -31.671875 C 21.421875 -31.671875 22.445312 -31.535156 23.375 -31.265625 L 21.921875 -22.390625 C 20.765625 -22.660156 19.835938 -22.796875 19.140625 -22.796875 C 17.316406 -22.796875 15.929688 -22.164062 14.984375 -20.90625 C 14.046875 -19.65625 13.304688 -17.769531 12.765625 -15.25 L 12.765625 0 L 3.59375 0 L 3.59375 -30.796875 L 11.59375 -30.796875 L 12.359375 -24.828125 C 13.046875 -26.953125 14.09375 -28.625 15.5 -29.84375 C 16.914062 -31.0625 18.515625 -31.671875 20.296875 -31.671875 Z M 20.296875 -31.671875 "/></g></g></g><g fill="#000000" fill-opacity="1"><g transform="translate(88.912341, 53.895835)"><g><path d="M 29.578125 0 L 21.640625 0 L 21.234375 -3.890625 C 18.984375 -0.640625 15.867188 0.984375 11.890625 0.984375 C 9.066406 0.984375 6.929688 0.132812 5.484375 -1.5625 C 4.035156 -3.269531 3.3125 -5.648438 3.3125 -8.703125 L 3.3125 -30.796875 L 12.46875 -30.796875 L 12.46875 -9.859375 C 12.46875 -8.347656 12.707031 -7.289062 13.1875 -6.6875 C 13.675781 -6.09375 14.421875 -5.796875 15.421875 -5.796875 C 17.359375 -5.796875 19.023438 -6.992188 20.421875 -9.390625 L 20.421875 -30.796875 L 29.578125 -30.796875 Z M 29.578125 0 "/></g></g></g><g fill="#000000" fill-opacity="1"><g transform="translate(122.086836, 53.895835)"><g><path d="M 14.4375 -31.78125 C 16.644531 -31.78125 18.710938 -31.453125 20.640625 -30.796875 C 22.578125 -30.140625 24.28125 -29.210938 25.75 -28.015625 L 22.390625 -22.859375 C 19.878906 -24.441406 17.347656 -25.234375 14.796875 -25.234375 C 13.585938 -25.234375 12.664062 -25.03125 12.03125 -24.625 C 11.394531 -24.21875 11.078125 -23.644531 11.078125 -22.90625 C 11.078125 -22.332031 11.222656 -21.859375 11.515625 -21.484375 C 11.804688 -21.117188 12.394531 -20.742188 13.28125 -20.359375 C 14.164062 -19.972656 15.539062 -19.507812 17.40625 -18.96875 C 20.613281 -18.039062 23 -16.832031 24.5625 -15.34375 C 26.125 -13.851562 26.90625 -11.789062 26.90625 -9.15625 C 26.90625 -7.070312 26.304688 -5.265625 25.109375 -3.734375 C 23.910156 -2.210938 22.265625 -1.046875 20.171875 -0.234375 C 18.085938 0.578125 15.769531 0.984375 13.21875 0.984375 C 10.632812 0.984375 8.226562 0.578125 6 -0.234375 C 3.78125 -1.046875 1.894531 -2.164062 0.34375 -3.59375 L 4.8125 -8.578125 C 7.40625 -6.566406 10.128906 -5.5625 12.984375 -5.5625 C 14.378906 -5.5625 15.472656 -5.8125 16.265625 -6.3125 C 17.054688 -6.820312 17.453125 -7.539062 17.453125 -8.46875 C 17.453125 -9.195312 17.296875 -9.773438 16.984375 -10.203125 C 16.679688 -10.628906 16.082031 -11.023438 15.1875 -11.390625 C 14.300781 -11.765625 12.894531 -12.222656 10.96875 -12.765625 C 7.90625 -13.648438 5.617188 -14.882812 4.109375 -16.46875 C 2.609375 -18.050781 1.859375 -20.023438 1.859375 -22.390625 C 1.859375 -24.171875 2.367188 -25.765625 3.390625 -27.171875 C 4.421875 -28.585938 5.890625 -29.707031 7.796875 -30.53125 C 9.710938 -31.363281 11.925781 -31.78125 14.4375 -31.78125 Z M 14.4375 -31.78125 "/></g></g></g><g fill="#000000" fill-opacity="1"><g transform="translate(150.099557, 53.895835)"><g><path d="M 16.9375 -31.78125 C 21.65625 -31.78125 25.347656 -30.335938 28.015625 -27.453125 C 30.679688 -24.578125 32.015625 -20.550781 32.015625 -15.375 C 32.015625 -12.082031 31.40625 -9.207031 30.1875 -6.75 C 28.96875 -4.300781 27.226562 -2.398438 24.96875 -1.046875 C 22.707031 0.304688 20.03125 0.984375 16.9375 0.984375 C 12.257812 0.984375 8.578125 -0.453125 5.890625 -3.328125 C 3.203125 -6.210938 1.859375 -10.242188 1.859375 -15.421875 C 1.859375 -18.710938 2.46875 -21.582031 3.6875 -24.03125 C 4.90625 -26.488281 6.644531 -28.394531 8.90625 -29.75 C 11.164062 -31.101562 13.84375 -31.78125 16.9375 -31.78125 Z M 16.9375 -25.0625 C 15.082031 -25.0625 13.691406 -24.273438 12.765625 -22.703125 C 11.835938 -21.140625 11.375 -18.710938 11.375 -15.421875 C 11.375 -12.054688 11.828125 -9.597656 12.734375 -8.046875 C 13.640625 -6.503906 15.039062 -5.734375 16.9375 -5.734375 C 18.789062 -5.734375 20.179688 -6.515625 21.109375 -8.078125 C 22.035156 -9.648438 22.5 -12.082031 22.5 -15.375 C 22.5 -18.738281 22.046875 -21.191406 21.140625 -22.734375 C 20.234375 -24.285156 18.832031 -25.0625 16.9375 -25.0625 Z M 16.9375 -25.0625 "/></g></g></g></g></g></g></svg>