<svg xmlns="http://www.w3.org/2000/svg" xmlns:xlink="http://www.w3.org/1999/xlink" width="600" zoomAndPan="magnify" viewBox="0 0 450 449.999984" height="600" preserveAspectRatio="xMidYMid meet" version="1.0"><defs><clipPath id="ad9dc558dc"><path d="M 0 44 L 351 44 L 351 368 L 0 368 Z M 0 44 " clip-rule="nonzero"/></clipPath><clipPath id="5f163be238"><path d="M 0 330.042969 L 317.382812 44.996094 L 350.761719 82.164062 L 33.378906 367.210938 Z M 0 330.042969 " clip-rule="nonzero"/></clipPath><clipPath id="8049d5836f"><path d="M 0 0.878906 L 350.878906 0.878906 L 350.878906 323.441406 L 0 323.441406 Z M 0 0.878906 " clip-rule="nonzero"/></clipPath><clipPath id="e60495f27d"><path d="M 0 286.042969 L 317.382812 0.996094 L 350.761719 38.164062 L 33.378906 323.210938 Z M 0 286.042969 " clip-rule="nonzero"/></clipPath><clipPath id="9f5a6a65ef"><rect x="0" width="351" y="0" height="324"/></clipPath><clipPath id="630478f623"><path d="M 62 55 L 414 55 L 414 379 L 62 379 Z M 62 55 " clip-rule="nonzero"/></clipPath><clipPath id="c242ac3424"><path d="M 62.371094 340.847656 L 379.75 55.800781 L 413.132812 92.96875 L 95.75 378.015625 Z M 62.371094 340.847656 " clip-rule="nonzero"/></clipPath><clipPath id="3ab31af4be"><path d="M 0.160156 0.679688 L 351.28125 0.679688 L 351.28125 323.238281 L 0.160156 323.238281 Z M 0.160156 0.679688 " clip-rule="nonzero"/></clipPath><clipPath id="d7a21bba0d"><path d="M 0.371094 285.847656 L 317.75 0.800781 L 351.132812 37.96875 L 33.75 323.015625 Z M 0.371094 285.847656 " clip-rule="nonzero"/></clipPath><clipPath id="955df3c436"><rect x="0" width="352" y="0" height="324"/></clipPath></defs><g clip-path="url(#ad9dc558dc)"><g clip-path="url(#5f163be238)"><g transform="matrix(1, 0, 0, 1, 0, 44)"><g clip-path="url(#9f5a6a65ef)"><g clip-path="url(#8049d5836f)"><g clip-path="url(#e60495f27d)"><path fill="#7a04ba" d="M 0 286.042969 L 317.382812 0.996094 L 350.761719 38.164062 L 33.378906 323.210938 Z M 0 286.042969 " fill-opacity="1" fill-rule="nonzero"/></g></g></g></g></g></g><g clip-path="url(#630478f623)"><g clip-path="url(#c242ac3424)"><g transform="matrix(1, 0, 0, 1, 62, 55)"><g clip-path="url(#955df3c436)"><g clip-path="url(#3ab31af4be)"><g clip-path="url(#d7a21bba0d)"><path fill="#9704e7" d="M 0.371094 285.847656 L 317.753906 0.800781 L 351.132812 37.96875 L 33.75 323.015625 Z M 0.371094 285.847656 " fill-opacity="1" fill-rule="nonzero"/></g></g></g></g></g></g></svg>